<svg xmlns="http://www.w3.org/2000/svg" width="1254" height="836" viewBox="0 0 1254 836">
<g>
<path d="M 664.27 607.94 C664.69,608.32 656.54,612.99 646.15,618.32 L 627.26 628.00 L 614.14 621.53 C542.34,586.12 488.91,537.89 452.52,475.65 C433.93,443.84 418.58,401.54 411.11,361.50 C405.50,331.45 403.01,287.72 404.87,252.02 C405.68,236.44 406.50,228.12 407.30,227.39 C409.80,225.07 449.10,210.85 473.00,203.61 C504.86,193.96 540.98,186.73 570.50,184.10 C576.00,183.61 580.68,183.38 580.90,183.59 C581.12,183.80 580.78,187.10 580.15,190.93 C579.52,194.75 579.00,200.12 579.00,202.85 L 579.00 207.82 L 575.25 208.37 C573.19,208.68 565.20,209.65 557.50,210.55 C520.23,214.87 476.99,226.24 438.51,241.85 C431.66,244.63 431.51,244.77 430.70,249.09 C429.13,257.55 430.62,316.00 432.87,334.50 C442.15,410.60 471.08,472.06 522.49,524.87 C541.72,544.62 558.74,558.78 580.63,573.22 C591.24,580.22 613.01,592.70 621.41,596.60 C626.29,598.86 626.34,598.86 631.16,597.03 L 636.00 595.19 L 649.75 601.21 C657.31,604.53 663.85,607.55 664.27,607.94 ZM 806.80 414.85 L 806.78 414.86 C801.25,418.56 798.73,420.24 798.22,419.76 C797.78,419.36 798.75,417.45 800.54,413.93 L 800.54 413.91 C810.85,393.58 818.66,364.70 822.69,332.00 C825.14,312.19 825.37,246.94 823.00,244.57 C819.60,241.18 777.42,226.89 752.00,220.52 C730.60,215.15 704.32,210.49 683.75,208.41 C678.48,207.87 677.00,207.37 677.01,206.11 C677.02,204.04 679.20,197.00 681.97,190.04 C684.03,184.85 684.05,184.51 682.38,183.29 C680.17,181.67 679.70,181.68 675.53,183.42 C671.07,185.29 668.22,190.92 667.00,200.27 C666.48,204.25 665.94,232.25 665.80,262.50 L 665.54 317.50 L 665.00 279.50 C664.71,258.60 664.35,242.18 664.20,243.00 C663.97,244.30 663.77,244.28 662.72,242.90 C661.35,241.10 656.96,241.35 655.84,243.28 C652.08,249.79 652.07,249.69 652.03,222.93 C652.01,208.61 652.48,194.78 653.09,191.47 C654.51,183.80 657.95,177.12 662.61,173.03 C667.80,168.48 671.89,167.00 679.30,167.00 C688.11,167.00 693.88,170.76 697.63,178.93 L 700.27 184.69 L 716.39 187.42 C751.96,193.46 793.88,205.34 831.31,220.00 C843.87,224.92 847.31,226.67 848.01,228.51 C849.51,232.46 850.86,284.26 849.96,303.50 C847.94,346.84 843.35,372.94 835.35,386.70 C831.41,393.48 815.91,408.75 806.80,414.85 ZM 697.50 587.67 C694.20,589.88 689.01,593.26 685.96,595.19 L 680.42 598.70 L 665.08 593.37 C597.85,569.99 540.33,526.85 502.57,471.50 C497.78,464.47 499.47,465.83 506.00,474.27 C507.92,476.75 509.78,478.61 510.13,478.40 C510.48,478.20 511.90,478.92 513.29,480.01 C514.68,481.11 516.84,482.00 518.09,482.00 C519.71,482.00 524.51,486.30 534.84,497.05 C551.57,514.44 566.71,527.38 579.50,535.24 C598.90,547.14 606.25,549.41 621.00,548.02 C626.22,547.52 632.07,546.64 633.99,546.06 C635.91,545.48 638.95,545.00 640.74,545.00 C642.53,545.00 644.00,544.56 644.00,544.01 C644.00,543.47 645.60,542.36 647.56,541.54 C649.52,540.72 652.28,539.14 653.69,538.03 C655.11,536.91 657.74,536.00 659.53,536.00 C661.32,536.00 665.88,534.70 669.65,533.11 C674.27,531.16 677.54,530.38 679.69,530.72 C681.53,531.00 685.66,530.31 689.40,529.11 C692.99,527.95 697.48,527.00 699.38,527.00 C701.62,527.00 703.90,526.11 705.82,524.49 C707.46,523.12 710.19,521.71 711.88,521.37 C713.58,521.03 714.75,520.40 714.48,519.96 C714.21,519.53 714.55,518.94 715.24,518.66 C715.98,518.37 715.74,518.12 714.68,518.08 C713.68,518.04 712.18,518.67 711.36,519.50 C709.66,521.20 707.00,521.51 707.00,520.00 C707.00,519.42 703.29,518.92 698.25,518.81 C691.55,518.67 690.91,518.55 695.50,518.32 C708.27,517.67 731.86,514.83 739.50,513.04 C757.31,508.85 767.04,505.12 791.36,493.18 C792.68,492.54 785.45,503.64 779.16,511.92 C758.63,538.96 728.18,567.21 697.50,587.67 ZM 591.79 244.79 C591.67,244.08 591.32,251.15 591.00,260.50 C590.59,272.58 590.36,265.27 590.21,235.27 C590.01,194.36 590.07,192.84 592.17,186.44 C596.63,172.86 607.75,164.71 622.01,164.59 C630.59,164.52 637.33,167.16 644.78,173.54 C649.37,177.47 649.36,178.64 644.70,183.75 C641.67,187.07 634.55,186.90 630.92,183.42 C629.31,181.88 626.61,180.62 624.23,180.30 C615.34,179.11 608.11,184.66 605.95,194.35 C604.31,201.68 604.99,203.20 609.74,202.81 C613.17,202.53 613.53,202.22 613.81,199.25 L 614.13 196.00 L 644.00 196.00 L 644.00 215.96 L 624.40 216.23 L 604.80 216.50 L 604.95 232.16 C605.02,240.86 604.67,248.08 604.16,248.40 C603.65,248.72 602.17,248.15 600.87,247.14 C597.62,244.61 595.81,244.11 593.75,245.17 C592.54,245.79 591.93,245.67 591.79,244.79 ZM 780.56 501.10 C781.31,502.32 782.74,502.23 783.54,500.93 C784.46,499.45 783.60,498.83 781.65,499.58 C780.75,499.93 780.26,500.61 780.56,501.10 Z" fill="rgb(3,64,129)"/>
<path d="M 732.01 394.53 C709.66,397.16 681.19,395.89 655.04,391.09 C642.40,388.77 613.80,381.87 614.39,381.28 C614.60,381.07 617.86,381.62 621.63,382.51 C625.41,383.39 631.83,384.75 635.90,385.54 C639.97,386.32 644.25,387.22 645.40,387.55 C647.08,388.01 647.20,387.92 646.00,387.08 C644.65,386.14 645.25,385.57 647.25,385.88 C647.66,385.95 648.00,385.55 648.00,385.00 C648.00,384.45 649.48,384.00 651.30,384.00 C654.50,384.00 654.59,383.89 654.18,380.42 L 653.76 376.83 L 658.17 377.11 C660.60,377.25 663.01,377.14 663.54,376.85 C664.07,376.56 667.65,376.63 671.50,377.02 C681.26,377.99 683.86,376.41 689.14,366.27 C689.97,364.69 690.92,364.19 692.41,364.57 C693.72,364.89 695.33,364.34 696.65,363.11 C697.83,362.01 699.06,361.32 699.39,361.56 C699.73,361.80 699.73,361.66 699.41,361.25 C699.08,360.84 697.85,360.50 696.66,360.50 C694.89,360.50 694.56,360.00 694.82,357.75 C695.09,355.49 694.75,355.00 692.96,355.00 C691.15,355.00 690.85,355.45 691.25,357.52 C691.51,358.91 691.34,360.29 690.87,360.58 C690.39,360.88 690.00,360.61 690.00,360.00 C690.00,359.39 689.64,359.10 689.20,359.38 C688.76,359.65 688.30,358.36 688.17,356.51 C687.91,352.62 689.63,351.63 695.17,352.51 C698.19,352.99 699.25,352.54 703.22,349.03 C707.07,345.65 708.50,345.00 712.14,345.00 C718.43,345.00 726.58,339.28 728.04,333.84 C728.75,331.23 729.88,329.62 731.42,329.03 C733.93,328.08 738.00,323.45 738.00,321.56 C738.00,320.92 739.75,317.71 741.89,314.44 C744.03,311.17 745.59,308.19 745.37,307.82 C745.15,307.44 745.42,305.10 745.97,302.61 C747.38,296.35 746.04,293.37 740.76,290.98 C738.42,289.91 737.08,289.03 737.80,289.02 C742.40,288.94 749.00,295.52 749.00,300.19 C749.00,301.89 749.42,302.86 750.00,302.50 C750.55,302.16 751.00,300.90 751.00,299.69 C751.01,295.77 754.81,290.97 759.59,288.86 L 764.12 286.85 L 759.82 284.68 C755.17,282.32 750.95,276.98 751.09,273.60 C751.15,271.94 751.35,272.09 752.02,274.31 C752.48,275.86 753.37,277.74 754.00,278.50 C755.30,280.07 756.19,279.46 763.21,272.23 C766.03,269.31 767.68,268.28 768.38,268.98 C770.32,270.92 773.91,270.08 775.70,267.25 C776.66,265.74 778.29,263.74 779.32,262.80 C780.34,261.87 780.91,260.66 780.58,260.12 C780.24,259.58 780.43,258.85 781.00,258.50 C781.57,258.15 781.77,257.44 781.46,256.93 C781.14,256.42 781.49,256.00 782.23,256.00 C782.97,256.00 783.64,255.10 783.72,254.00 C783.83,252.59 783.09,251.84 781.19,251.42 C779.71,251.10 776.25,249.99 773.50,248.96 C770.75,247.93 765.80,246.18 762.50,245.08 C759.20,243.97 757.28,243.05 758.23,243.03 C762.33,242.95 801.41,256.55 803.72,258.86 C805.06,260.21 805.19,264.51 804.71,292.95 C804.00,335.51 801.36,356.72 795.65,365.76 C791.02,373.10 779.73,381.37 768.50,385.66 C758.21,389.59 743.39,393.19 732.01,394.53 ZM 723.25 515.63 C713.82,516.84 702.86,517.94 695.50,518.32 C690.91,518.55 691.55,518.67 698.25,518.81 C703.29,518.92 707.00,519.42 707.00,520.00 C707.00,521.51 709.66,521.20 711.36,519.50 C712.18,518.67 713.68,518.04 714.68,518.08 C715.74,518.12 715.98,518.37 715.24,518.66 C714.55,518.94 714.21,519.53 714.48,519.96 C714.75,520.40 713.58,521.03 711.88,521.37 C710.19,521.71 707.46,523.12 705.82,524.49 C703.90,526.11 701.62,527.00 699.38,527.00 C697.48,527.00 692.99,527.95 689.40,529.11 C685.66,530.31 681.53,531.00 679.69,530.72 C677.54,530.38 674.27,531.16 669.65,533.11 C665.88,534.70 661.32,536.00 659.53,536.00 C657.74,536.00 655.11,536.91 653.69,538.03 C652.28,539.14 649.52,540.72 647.56,541.54 C645.60,542.36 644.00,543.47 644.00,544.01 C644.00,544.56 642.53,545.00 640.74,545.00 C638.95,545.00 635.91,545.48 633.99,546.06 C632.07,546.64 626.22,547.52 621.00,548.02 C606.25,549.41 598.90,547.14 579.50,535.24 C566.71,527.38 551.57,514.44 534.84,497.05 C524.51,486.30 519.71,482.00 518.09,482.00 C516.84,482.00 514.68,481.11 513.29,480.01 C511.90,478.92 510.48,478.20 510.13,478.40 C509.78,478.61 507.92,476.75 506.00,474.27 C499.47,465.83 497.78,464.47 502.57,471.50 C505.50,475.79 508.55,480.02 511.71,484.16 L 511.59 484.00 C499.40,468.35 490.74,455.08 497.64,462.63 C500.36,465.60 501.07,465.82 512.00,466.96 C530.01,468.85 554.28,475.15 572.12,482.58 C578.19,485.10 580.81,485.75 588.50,486.63 C591.25,486.94 600.54,488.93 609.14,491.05 C629.73,496.12 639.34,497.70 658.00,499.07 C691.11,501.51 720.40,497.26 742.81,486.75 C746.29,485.13 748.91,483.58 748.65,483.32 C748.39,483.05 747.30,483.30 746.24,483.87 C744.59,484.75 742.12,484.81 737.50,484.07 C735.48,483.74 746.13,478.94 752.22,477.43 C755.68,476.57 759.90,475.51 761.61,475.07 C767.33,473.61 775.43,469.39 787.01,461.86 C793.33,457.75 799.17,453.98 800.00,453.48 C800.83,452.97 804.00,452.68 807.05,452.83 L 812.60 453.10 L 816.20 447.80 C818.18,444.89 821.17,439.80 822.85,436.50 C824.53,433.20 825.93,430.85 825.95,431.27 C826.07,433.15 816.79,450.08 812.56,455.71 C801.51,470.40 782.60,484.21 759.00,494.82 C749.37,499.15 742.67,501.17 719.50,506.71 C697.48,511.97 670.60,512.96 642.96,509.54 C638.87,509.03 638.75,509.08 641.50,510.07 C643.15,510.67 645.17,511.42 646.00,511.74 C646.83,512.06 648.06,512.22 648.75,512.11 C649.44,512.00 650.00,512.27 650.00,512.71 C650.00,513.14 652.78,513.60 656.18,513.73 C659.58,513.86 662.62,514.31 662.93,514.73 C663.52,515.53 668.01,516.05 673.89,516.01 C675.75,515.99 677.80,516.42 678.46,516.96 C679.81,518.09 707.16,517.09 723.25,515.63 ZM 591.79 244.79 C591.93,245.67 592.54,245.79 593.75,245.17 C595.81,244.11 597.62,244.61 600.87,247.14 C602.17,248.15 603.65,248.72 604.16,248.40 C604.67,248.08 605.02,240.86 604.95,232.16 L 604.89 225.90 L 604.95 231.96 C605.03,240.47 605.33,247.67 605.63,247.96 C606.44,248.78 642.80,249.26 647.71,248.52 L 652.00 247.88 L 652.00 222.62 C652.00,212.60 652.25,202.57 652.62,196.52 C652.26,202.58 652.02,212.63 652.03,222.93 C652.07,249.69 652.08,249.79 655.84,243.28 C656.96,241.35 661.35,241.10 662.72,242.90 C663.77,244.28 663.97,244.30 664.20,243.00 C664.35,242.18 664.71,258.60 665.00,279.50 L 665.54 317.50 L 665.80 262.50 C665.94,232.25 666.48,204.25 667.00,200.27 C667.14,199.19 667.30,198.16 667.49,197.18 L 667.23 269.43 C667.01,330.09 667.21,345.51 668.23,346.16 C670.50,347.60 666.33,347.12 662.27,345.47 C660.10,344.59 657.31,342.27 655.70,339.99 L 652.89 336.03 L 627.70 335.77 C602.39,335.50 594.87,336.28 592.77,339.41 C592.32,340.07 591.98,340.11 591.90,339.50 C591.82,338.95 591.45,339.85 591.06,341.50 C590.15,345.39 588.64,241.89 589.21,214.50 C589.60,195.76 589.89,192.77 591.99,186.67 C592.82,184.25 593.84,182.01 595.02,179.96 C597.39,175.81 600.52,172.41 604.26,169.87 C600.56,172.40 597.44,175.79 595.02,179.96 C593.89,181.95 592.93,184.12 592.17,186.44 C590.07,192.84 590.01,194.36 590.21,235.27 C590.36,265.27 590.59,272.58 591.00,260.50 C591.32,251.15 591.67,244.08 591.79,244.79 ZM 719.43 472.85 C708.85,474.09 688.14,474.88 679.00,474.39 C670.62,473.94 651.02,470.98 648.75,469.82 C647.79,469.33 647.00,468.30 647.00,467.53 C647.00,465.96 648.40,465.45 655.25,464.52 C657.86,464.17 660.00,463.49 660.00,463.01 C660.00,461.53 654.84,458.00 652.62,457.96 C651.45,457.93 648.03,457.26 645.00,456.46 C639.67,455.05 639.64,455.02 644.00,455.57 C646.47,455.88 651.88,456.55 656.00,457.06 C682.33,460.32 697.51,460.30 725.48,456.99 C735.57,455.79 754.54,451.69 760.27,449.47 C762.34,448.66 764.82,448.04 765.77,448.08 C766.72,448.12 763.98,449.37 759.69,450.85 C755.31,452.36 752.23,453.93 752.69,454.43 C753.15,454.94 752.74,455.05 751.75,454.69 C750.79,454.35 750.00,454.49 750.00,455.01 C750.00,455.53 748.65,455.68 747.00,455.35 C744.71,454.89 744.00,455.11 744.00,456.29 C744.00,457.51 744.88,457.73 748.21,457.34 C750.52,457.08 752.75,456.66 753.16,456.40 C754.50,455.57 763.09,458.23 762.75,459.38 C761.72,462.79 735.38,470.99 719.43,472.85 ZM 605.25 291.34 C605.94,291.62 616.74,291.88 629.25,291.92 L 652.00 292.00 L 652.00 277.00 L 645.25 276.93 C637.49,276.85 639.28,275.19 647.25,275.07 L 652.00 275.00 L 652.00 261.16 L 645.75 260.51 C642.31,260.15 631.62,260.00 622.00,260.18 L 604.50 260.50 L 604.21 267.71 L 603.91 274.92 L 607.21 275.87 L 610.50 276.82 L 607.25 276.91 L 604.00 277.00 L 604.00 283.92 C604.00,288.51 604.42,291.00 605.25,291.34 ZM 604.67 334.33 C605.03,334.70 615.83,335.00 628.67,335.00 L 652.00 335.00 L 652.00 319.00 L 604.00 319.00 L 604.00 326.33 C604.00,330.37 604.30,333.97 604.67,334.33 ZM 614.50 316.00 C613.22,316.55 616.56,316.88 623.81,316.93 C631.11,316.98 634.90,316.65 634.50,316.00 C634.16,315.45 634.70,315.00 635.70,315.00 C637.93,315.00 639.76,311.07 640.63,304.46 C640.99,301.73 641.72,298.64 642.27,297.58 C644.07,294.08 640.79,293.00 628.34,293.00 C627.94,293.00 627.54,293.00 627.16,293.00 C621.24,292.99 618.29,292.99 616.68,294.46 C614.98,296.03 614.80,299.26 614.21,305.92 C613.53,313.76 613.63,315.01 614.96,315.07 C616.04,315.12 615.90,315.40 614.50,316.00 ZM 766.80 421.26 C763.33,423.70 759.83,426.01 759.00,426.39 C758.17,426.78 758.61,426.28 759.96,425.30 C761.32,424.31 764.97,421.63 768.07,419.35 C776.22,413.38 785.91,400.03 788.48,391.25 C789.49,387.79 785.67,388.33 782.75,392.06 C781.43,393.75 779.71,395.25 778.93,395.39 C773.83,396.35 769.12,398.24 768.63,399.51 C768.32,400.33 766.95,401.00 765.59,401.00 C764.23,401.00 762.88,401.39 762.58,401.87 C762.29,402.35 760.35,403.01 758.27,403.34 C756.20,403.68 753.38,404.75 752.00,405.73 C750.55,406.76 747.61,407.53 745.00,407.56 C742.53,407.60 734.89,408.39 728.03,409.31 C721.17,410.24 713.75,410.95 711.53,410.89 C709.31,410.83 714.47,409.97 723.00,408.98 C747.69,406.11 766.05,400.04 783.89,388.84 C789.06,385.60 793.42,383.08 793.58,383.24 C793.74,383.40 791.68,388.03 789.02,393.52 C783.22,405.44 775.39,415.22 766.80,421.26 ZM 770.30 332.40 C772.06,334.37 773.77,335.99 774.09,335.99 C774.41,336.00 775.20,334.86 775.83,333.47 C776.46,332.08 777.66,330.68 778.49,330.37 C779.66,329.92 779.31,329.16 776.89,326.90 C775.18,325.30 773.50,324.01 773.14,324.03 C772.79,324.05 771.29,325.13 769.80,326.44 L 767.11 328.81 ZM 772.05 309.56 C774.40,312.39 778.36,310.55 777.84,306.89 C777.38,303.68 773.55,303.10 772.00,306.00 C771.14,307.61 771.15,308.48 772.05,309.56 ZM 719.20 359.80 C720.68,361.28 723.66,361.36 724.53,359.96 C725.51,358.36 723.04,356.00 720.38,356.00 C717.82,356.00 717.25,357.85 719.20,359.80 ZM 753.46 296.94 C754.36,298.39 755.03,298.28 757.17,296.35 C759.31,294.41 759.58,292.00 757.65,292.00 C755.77,292.00 752.67,295.65 753.46,296.94 ZM 780.56 501.10 C780.26,500.61 780.75,499.93 781.65,499.58 C783.60,498.83 784.46,499.45 783.54,500.93 C782.74,502.23 781.31,502.32 780.56,501.10 ZM 665.08 593.37 C627.62,580.34 594.02,561.83 564.54,538.04 C593.99,561.63 628.06,580.49 665.08,593.37 ZM 762.38 506.25 C756.66,508.41 751.35,510.05 745.28,511.62 C750.93,510.11 756.73,508.29 762.38,506.25 Z" fill="rgb(14,137,179)"/>
<path d="M 0.00 418.00 L 0.00 0.00 L 627.00 0.00 L 1254.00 0.00 L 1254.00 418.00 L 1254.00 836.00 L 627.00 836.00 L 0.00 836.00 L 0.00 418.00 ZM 664.27 607.94 C663.85,607.55 657.31,604.53 649.75,601.21 L 636.00 595.19 L 631.16 597.03 C626.34,598.86 626.29,598.86 621.41,596.60 C613.01,592.70 591.24,580.22 580.63,573.22 C558.74,558.78 541.72,544.62 522.49,524.87 C471.08,472.06 442.15,410.60 432.87,334.50 C430.62,316.00 429.13,257.55 430.70,249.09 C431.51,244.77 431.66,244.63 438.51,241.85 C476.99,226.24 520.23,214.87 557.50,210.55 C565.20,209.65 573.19,208.68 575.25,208.37 L 579.00 207.82 L 579.00 202.85 C579.00,200.12 579.52,194.75 580.15,190.93 C580.78,187.10 581.12,183.80 580.90,183.59 C580.68,183.38 576.00,183.61 570.50,184.10 C540.98,186.73 504.86,193.96 473.00,203.61 C449.10,210.85 409.80,225.07 407.30,227.39 C406.50,228.12 405.68,236.44 404.87,252.02 C403.01,287.72 405.50,331.45 411.11,361.50 C418.58,401.54 433.93,443.84 452.52,475.65 C488.91,537.89 542.34,586.12 614.14,621.53 L 627.26 628.00 L 646.15 618.32 C656.54,612.99 664.69,608.32 664.27,607.94 ZM 697.50 587.67 C728.18,567.21 758.63,538.96 779.16,511.92 C785.54,503.52 792.65,492.57 791.36,493.14 C790.89,493.35 787.35,495.15 783.50,497.14 C768.72,504.80 748.55,511.64 732.15,514.57 C721.23,516.51 680.13,518.35 678.46,516.96 C677.80,516.42 675.75,515.99 673.89,516.01 C668.01,516.05 663.52,515.53 662.93,514.73 C662.62,514.31 659.58,513.86 656.18,513.73 C652.78,513.60 650.00,513.14 650.00,512.71 C650.00,512.27 649.44,512.00 648.75,512.11 C648.06,512.22 646.83,512.06 646.00,511.74 C645.17,511.42 643.15,510.67 641.50,510.07 C638.75,509.08 638.87,509.03 642.96,509.54 C670.60,512.96 697.48,511.97 719.50,506.71 C742.67,501.17 749.37,499.15 759.00,494.82 C782.60,484.21 801.51,470.40 812.56,455.71 C816.79,450.08 826.07,433.15 825.95,431.27 C825.93,430.85 824.53,433.20 822.85,436.50 C821.17,439.80 818.18,444.89 816.20,447.80 L 812.60 453.10 L 807.05 452.83 C804.00,452.68 800.83,452.97 800.00,453.48 C799.17,453.98 793.33,457.75 787.01,461.86 C775.43,469.39 767.33,473.61 761.61,475.07 C759.90,475.51 755.68,476.57 752.22,477.43 C746.13,478.94 735.48,483.74 737.50,484.07 C742.12,484.81 744.59,484.75 746.24,483.87 C747.30,483.30 748.39,483.05 748.65,483.32 C748.91,483.58 746.29,485.13 742.81,486.75 C720.40,497.26 691.11,501.51 658.00,499.07 C639.34,497.70 629.73,496.12 609.14,491.05 C600.54,488.93 591.25,486.94 588.50,486.63 C580.81,485.75 578.19,485.10 572.12,482.58 C554.28,475.15 530.01,468.85 512.00,466.96 C501.07,465.82 500.36,465.60 497.64,462.63 C490.74,455.08 499.40,468.35 511.59,484.00 C551.28,534.98 602.86,571.73 665.08,593.37 L 680.42 598.70 L 685.96 595.19 C689.01,593.26 694.20,589.88 697.50,587.67 ZM 719.43 472.85 C735.38,470.99 761.72,462.79 762.75,459.38 C763.09,458.23 754.50,455.57 753.16,456.40 C752.75,456.66 750.52,457.08 748.21,457.34 C744.88,457.73 744.00,457.51 744.00,456.29 C744.00,455.11 744.71,454.89 747.00,455.35 C748.65,455.68 750.00,455.53 750.00,455.01 C750.00,454.49 750.79,454.35 751.75,454.69 C752.74,455.05 753.15,454.94 752.69,454.43 C752.23,453.93 755.31,452.36 759.69,450.85 C763.98,449.37 766.72,448.12 765.77,448.08 C764.82,448.04 762.34,448.66 760.27,449.47 C754.54,451.69 735.57,455.79 725.48,456.99 C697.51,460.30 682.33,460.32 656.00,457.06 C651.88,456.55 646.47,455.88 644.00,455.57 C639.64,455.02 639.67,455.05 645.00,456.46 C648.03,457.26 651.45,457.93 652.62,457.96 C654.84,458.00 660.00,461.53 660.00,463.01 C660.00,463.49 657.86,464.17 655.25,464.52 C648.40,465.45 647.00,465.96 647.00,467.53 C647.00,468.30 647.79,469.33 648.75,469.82 C651.02,470.98 670.62,473.94 679.00,474.39 C688.14,474.88 708.85,474.09 719.43,472.85 ZM 766.80 421.26 C775.39,415.22 783.22,405.44 789.02,393.52 C791.68,388.03 793.74,383.40 793.58,383.24 C793.42,383.08 789.06,385.60 783.89,388.84 C766.05,400.04 747.69,406.11 723.00,408.98 C714.47,409.97 709.31,410.83 711.53,410.89 C713.75,410.95 721.17,410.24 728.03,409.31 C734.89,408.39 742.53,407.60 745.00,407.56 C747.61,407.53 750.55,406.76 752.00,405.73 C753.38,404.75 756.20,403.68 758.27,403.34 C760.35,403.01 762.29,402.35 762.58,401.87 C762.88,401.39 764.23,401.00 765.59,401.00 C766.95,401.00 768.32,400.33 768.63,399.51 C769.12,398.24 773.83,396.35 778.93,395.39 C779.71,395.25 781.43,393.75 782.75,392.06 C785.67,388.33 789.49,387.79 788.48,391.25 C785.91,400.03 776.22,413.38 768.07,419.35 C764.97,421.63 761.32,424.31 759.96,425.30 C758.61,426.28 758.17,426.78 759.00,426.39 C759.83,426.01 763.33,423.70 766.80,421.26 ZM 806.80 414.85 C815.91,408.75 831.41,393.48 835.35,386.70 C843.35,372.94 847.94,346.84 849.96,303.50 C850.86,284.26 849.51,232.46 848.01,228.51 C847.31,226.67 843.87,224.92 831.31,220.00 C793.88,205.34 751.96,193.46 716.39,187.42 L 700.27 184.69 L 697.63 178.93 C693.88,170.76 688.11,167.00 679.30,167.00 C671.89,167.00 667.80,168.48 662.61,173.03 C657.95,177.12 654.51,183.80 653.09,191.47 C652.49,194.73 652.00,208.68 652.00,222.62 L 652.00 247.88 L 647.71 248.52 C642.80,249.26 606.44,248.78 605.63,247.96 C605.33,247.67 605.03,240.47 604.95,231.96 L 604.80 216.50 L 624.40 216.23 L 644.00 215.96 L 644.00 205.98 L 644.00 196.00 L 629.06 196.00 L 614.13 196.00 L 613.81 199.25 C613.53,202.22 613.17,202.53 609.74,202.81 C604.99,203.20 604.31,201.68 605.95,194.35 C608.11,184.66 615.34,179.11 624.23,180.30 C626.61,180.62 629.31,181.88 630.92,183.42 C634.55,186.90 641.67,187.07 644.70,183.75 C649.36,178.64 649.37,177.47 644.78,173.54 C637.33,167.16 630.59,164.52 622.01,164.59 C607.71,164.71 596.77,172.76 591.99,186.67 C589.89,192.77 589.60,195.76 589.21,214.50 C588.64,241.89 590.15,345.39 591.06,341.50 C591.45,339.85 591.82,338.95 591.90,339.50 C591.98,340.11 592.32,340.07 592.77,339.41 C594.87,336.28 602.39,335.50 627.70,335.77 L 652.89 336.03 L 655.70 339.99 C657.31,342.27 660.10,344.59 662.27,345.47 C666.33,347.12 670.50,347.60 668.23,346.16 C667.21,345.51 667.01,330.09 667.23,269.43 L 667.50 193.50 L 669.81 189.17 C671.35,186.29 673.26,184.37 675.53,183.42 C679.70,181.68 680.17,181.67 682.38,183.29 C684.05,184.51 684.03,184.85 681.97,190.04 C679.20,197.00 677.02,204.04 677.01,206.11 C677.00,207.37 678.48,207.87 683.75,208.41 C704.32,210.49 730.60,215.15 752.00,220.52 C777.42,226.89 819.60,241.18 823.00,244.57 C825.37,246.94 825.14,312.19 822.69,332.00 C818.66,364.70 810.85,393.58 800.54,413.91 C796.62,421.65 796.62,421.65 806.80,414.85 ZM 732.01 394.53 C743.39,393.19 758.21,389.59 768.50,385.66 C779.73,381.37 791.02,373.10 795.65,365.76 C801.36,356.72 804.00,335.51 804.71,292.95 C805.19,264.51 805.06,260.21 803.72,258.86 C801.41,256.55 762.33,242.95 758.23,243.03 C757.28,243.05 759.20,243.97 762.50,245.08 C765.80,246.18 770.75,247.93 773.50,248.96 C776.25,249.99 779.71,251.10 781.19,251.42 C783.09,251.84 783.83,252.59 783.72,254.00 C783.64,255.10 782.97,256.00 782.23,256.00 C781.49,256.00 781.14,256.42 781.46,256.93 C781.77,257.44 781.57,258.15 781.00,258.50 C780.43,258.85 780.24,259.58 780.58,260.12 C780.91,260.66 780.34,261.87 779.32,262.80 C778.29,263.74 776.66,265.74 775.70,267.25 C773.91,270.08 770.32,270.92 768.38,268.98 C767.68,268.28 766.03,269.31 763.21,272.23 C756.19,279.46 755.30,280.07 754.00,278.50 C753.37,277.74 752.48,275.86 752.02,274.31 C751.35,272.09 751.15,271.94 751.09,273.60 C750.95,276.98 755.17,282.32 759.82,284.68 L 764.12 286.85 L 759.59 288.86 C754.81,290.97 751.01,295.77 751.00,299.69 C751.00,300.90 750.55,302.16 750.00,302.50 C749.42,302.86 749.00,301.89 749.00,300.19 C749.00,295.52 742.40,288.94 737.80,289.02 C737.08,289.03 738.42,289.91 740.76,290.98 C746.04,293.37 747.38,296.35 745.97,302.61 C745.42,305.10 745.15,307.44 745.37,307.82 C745.59,308.19 744.03,311.17 741.89,314.44 C739.75,317.71 738.00,320.92 738.00,321.56 C738.00,323.45 733.93,328.08 731.42,329.03 C729.88,329.62 728.75,331.23 728.04,333.84 C726.58,339.28 718.43,345.00 712.14,345.00 C708.50,345.00 707.07,345.65 703.22,349.03 C699.25,352.54 698.19,352.99 695.17,352.51 C689.63,351.63 687.91,352.62 688.17,356.51 C688.30,358.36 688.76,359.65 689.20,359.38 C689.64,359.10 690.00,359.39 690.00,360.00 C690.00,360.61 690.39,360.88 690.87,360.58 C691.34,360.29 691.51,358.91 691.25,357.52 C690.85,355.45 691.15,355.00 692.96,355.00 C694.75,355.00 695.09,355.49 694.82,357.75 C694.56,360.00 694.89,360.50 696.66,360.50 C697.85,360.50 699.08,360.84 699.41,361.25 C699.73,361.66 699.73,361.80 699.39,361.56 C699.06,361.32 697.83,362.01 696.65,363.11 C695.33,364.34 693.72,364.89 692.41,364.57 C690.92,364.19 689.97,364.69 689.14,366.27 C683.86,376.41 681.26,377.99 671.50,377.02 C667.65,376.63 664.07,376.56 663.54,376.85 C663.01,377.14 660.60,377.25 658.17,377.11 L 653.76 376.83 L 654.18 380.42 C654.59,383.89 654.50,384.00 651.30,384.00 C649.48,384.00 648.00,384.45 648.00,385.00 C648.00,385.55 647.66,385.95 647.25,385.88 C645.25,385.57 644.65,386.14 646.00,387.08 C647.20,387.92 647.08,388.01 645.40,387.55 C644.25,387.22 639.97,386.32 635.90,385.54 C631.83,384.75 625.41,383.39 621.63,382.51 C617.86,381.62 614.60,381.07 614.39,381.28 C613.80,381.87 642.40,388.77 655.04,391.09 C681.19,395.89 709.66,397.16 732.01,394.53 ZM 604.67 334.33 C604.30,333.97 604.00,330.37 604.00,326.33 L 604.00 319.00 L 628.00 319.00 L 652.00 319.00 L 652.00 327.00 L 652.00 335.00 L 628.67 335.00 C615.83,335.00 605.03,334.70 604.67,334.33 ZM 614.50 316.00 C615.90,315.40 616.04,315.12 614.96,315.07 C613.63,315.01 613.53,313.76 614.21,305.92 C615.38,292.58 614.93,293.00 628.34,293.00 C640.79,293.00 644.07,294.08 642.27,297.58 C641.72,298.64 640.99,301.73 640.63,304.46 C639.76,311.07 637.93,315.00 635.70,315.00 C634.70,315.00 634.16,315.45 634.50,316.00 C634.90,316.65 631.11,316.98 623.81,316.93 C616.56,316.88 613.22,316.55 614.50,316.00 ZM 605.25 291.34 C604.42,291.00 604.00,288.51 604.00,283.92 L 604.00 277.00 L 607.25 276.91 L 610.50 276.82 L 607.21 275.87 L 603.91 274.92 L 604.21 267.71 L 604.50 260.50 L 622.00 260.18 C631.62,260.00 642.31,260.15 645.75,260.51 L 652.00 261.16 L 652.00 268.08 L 652.00 275.00 L 647.25 275.07 C639.28,275.19 637.49,276.85 645.25,276.93 L 652.00 277.00 L 652.00 284.50 L 652.00 292.00 L 629.25 291.92 C616.74,291.88 605.94,291.62 605.25,291.34 ZM 719.20 359.80 C717.25,357.85 717.82,356.00 720.38,356.00 C723.04,356.00 725.51,358.36 724.53,359.96 C723.66,361.36 720.68,361.28 719.20,359.80 ZM 770.30 332.40 L 767.11 328.81 L 769.80 326.44 C771.29,325.13 772.79,324.05 773.14,324.03 C773.50,324.01 775.18,325.30 776.89,326.90 C779.31,329.16 779.66,329.92 778.49,330.37 C777.66,330.68 776.46,332.08 775.83,333.47 C775.20,334.86 774.41,336.00 774.09,335.99 C773.77,335.99 772.06,334.37 770.30,332.40 ZM 772.05 309.56 C771.15,308.48 771.14,307.61 772.00,306.00 C773.55,303.10 777.38,303.68 777.84,306.89 C778.36,310.55 774.40,312.39 772.05,309.56 ZM 753.46 296.94 C752.67,295.65 755.77,292.00 757.65,292.00 C759.58,292.00 759.31,294.41 757.17,296.35 C755.03,298.28 754.36,298.39 753.46,296.94 Z" fill="rgb(30,195,216)"/>
<path d="M 0.00 418.00 L 0.00 0.00 L 627.00 0.00 L 1254.00 0.00 L 1254.00 418.00 L 1254.00 836.00 L 627.00 836.00 L 0.00 836.00 L 0.00 418.00 ZM 664.27 607.94 C663.85,607.55 657.31,604.53 649.75,601.21 L 636.00 595.19 L 631.16 597.03 C626.34,598.86 626.29,598.86 621.41,596.60 C613.01,592.70 591.24,580.22 580.63,573.22 C558.74,558.78 541.72,544.62 522.49,524.87 C471.08,472.06 442.15,410.60 432.87,334.50 C430.62,316.00 429.13,257.55 430.70,249.09 C431.51,244.77 431.66,244.63 438.51,241.85 C476.99,226.24 520.23,214.87 557.50,210.55 C565.20,209.65 573.19,208.68 575.25,208.37 L 579.00 207.82 L 579.00 202.85 C579.00,200.12 579.52,194.75 580.15,190.93 C580.78,187.10 581.12,183.80 580.90,183.59 C580.68,183.38 576.00,183.61 570.50,184.10 C540.98,186.73 504.86,193.96 473.00,203.61 C449.10,210.85 409.80,225.07 407.30,227.39 C406.50,228.12 405.68,236.44 404.87,252.02 C403.01,287.72 405.50,331.45 411.11,361.50 C418.58,401.54 433.93,443.84 452.52,475.65 C488.91,537.89 542.34,586.12 614.14,621.53 L 627.26 628.00 L 646.15 618.32 C656.54,612.99 664.69,608.32 664.27,607.94 ZM 697.50 587.67 C728.18,567.21 758.63,538.96 779.16,511.92 C785.54,503.52 792.65,492.57 791.36,493.14 C790.89,493.35 787.35,495.15 783.50,497.14 C768.72,504.80 748.55,511.64 732.15,514.57 C721.23,516.51 680.13,518.35 678.46,516.96 C677.80,516.42 675.75,515.99 673.89,516.01 C668.01,516.05 663.52,515.53 662.93,514.73 C662.62,514.31 659.58,513.86 656.18,513.73 C652.78,513.60 650.00,513.14 650.00,512.71 C650.00,512.27 649.44,512.00 648.75,512.11 C648.06,512.22 646.83,512.06 646.00,511.74 C645.17,511.42 643.15,510.67 641.50,510.07 C638.75,509.08 638.87,509.03 642.96,509.54 C670.60,512.96 697.48,511.97 719.50,506.71 C742.67,501.17 749.37,499.15 759.00,494.82 C796.83,477.81 818.12,456.20 829.75,423.00 C832.44,415.31 834.47,405.00 833.28,405.00 C832.36,405.00 827.51,409.19 827.86,409.69 C828.42,410.51 819.72,419.00 818.31,419.00 C817.62,419.00 816.31,420.12 815.41,421.50 C814.51,422.88 813.21,424.00 812.53,424.00 C811.85,424.00 810.17,425.01 808.81,426.25 C807.44,427.49 804.79,429.37 802.91,430.42 C801.03,431.48 799.28,432.61 799.00,432.93 C798.72,433.25 793.78,435.75 788.00,438.48 C782.22,441.20 776.92,443.99 776.22,444.68 C775.52,445.36 774.28,445.66 773.47,445.35 C772.66,445.04 772.00,445.31 772.00,445.95 C772.00,446.59 771.54,446.84 770.99,446.49 C770.43,446.15 766.04,447.21 761.24,448.85 C745.33,454.29 733.56,456.45 705.50,459.08 C691.06,460.43 660.87,458.69 649.40,455.84 C647.14,455.28 643.21,454.79 640.65,454.75 C638.09,454.71 636.00,454.35 636.00,453.94 C636.00,453.52 635.10,453.42 634.00,453.71 C632.90,454.00 632.00,453.77 632.00,453.20 C632.00,452.64 630.16,451.87 627.91,451.49 C625.67,451.11 615.43,448.35 605.16,445.37 C555.64,430.96 529.28,425.19 503.00,422.98 C490.72,421.95 475.00,421.68 475.00,422.49 C475.00,424.03 484.44,443.00 485.20,443.00 C485.71,443.00 485.85,443.43 485.52,443.96 C485.20,444.49 485.81,445.81 486.88,446.88 C487.95,447.95 488.57,449.10 488.25,449.42 C487.93,449.74 488.22,450.00 488.89,450.00 C489.57,450.00 489.84,450.45 489.50,451.00 C489.16,451.55 489.39,452.00 490.00,452.00 C490.61,452.00 490.84,452.45 490.50,453.00 C490.16,453.55 490.39,454.00 491.00,454.00 C491.61,454.00 491.86,454.42 491.54,454.94 C491.22,455.45 491.75,456.32 492.73,456.87 C493.70,457.41 494.38,458.23 494.23,458.68 C493.84,459.84 500.51,469.70 510.00,482.00 C550.34,534.29 602.11,571.47 665.08,593.37 L 680.42 598.70 L 685.96 595.19 C689.01,593.26 694.20,589.88 697.50,587.67 ZM 715.00 440.12 C754.42,434.23 775.65,421.10 788.46,394.72 C791.44,388.58 793.74,383.41 793.56,383.23 C793.39,383.06 789.01,385.58 783.82,388.85 C765.73,400.24 751.25,404.96 721.92,409.00 C715.59,409.87 683.28,410.21 674.00,409.51 C658.78,408.35 635.68,403.76 612.50,397.29 C575.60,386.99 553.55,382.86 525.39,380.99 C507.54,379.80 486.49,381.00 472.74,384.00 C467.71,385.10 463.49,386.00 463.36,386.00 C462.53,386.00 464.27,394.58 466.20,400.00 L 468.52 406.50 L 488.01 406.18 C516.36,405.72 537.02,408.35 569.00,416.51 C576.42,418.41 583.62,420.24 585.00,420.58 C586.38,420.93 593.80,423.14 601.50,425.49 C652.21,441.00 682.75,444.94 715.00,440.12 ZM 806.80 414.85 C815.91,408.75 831.41,393.48 835.35,386.70 C843.35,372.94 847.94,346.84 849.96,303.50 C850.86,284.26 849.51,232.46 848.01,228.51 C847.31,226.67 843.87,224.92 831.31,220.00 C793.88,205.34 751.96,193.46 716.39,187.42 L 700.27 184.69 L 697.63 178.93 C693.88,170.76 688.11,167.00 679.30,167.00 C671.89,167.00 667.80,168.48 662.61,173.03 C657.95,177.12 654.51,183.80 653.09,191.47 C652.49,194.73 652.00,208.68 652.00,222.62 L 652.00 247.88 L 647.71 248.52 C642.80,249.26 606.44,248.78 605.63,247.96 C605.33,247.67 605.03,240.47 604.95,231.96 L 604.80 216.50 L 624.40 216.23 L 644.00 215.96 L 644.00 205.98 L 644.00 196.00 L 629.06 196.00 L 614.13 196.00 L 613.81 199.25 C613.53,202.22 613.17,202.53 609.74,202.81 C604.99,203.20 604.31,201.68 605.95,194.35 C608.11,184.66 615.34,179.11 624.23,180.30 C626.61,180.62 629.31,181.88 630.92,183.42 C634.55,186.90 641.67,187.07 644.70,183.75 C649.36,178.64 649.37,177.47 644.78,173.54 C637.33,167.16 630.59,164.52 622.01,164.59 C607.75,164.71 596.86,172.70 591.92,186.67 L 589.50 193.50 L 589.21 269.84 C588.96,338.23 588.77,346.12 587.38,345.59 C586.53,345.27 584.52,345.00 582.92,345.00 L 580.00 345.00 L 580.00 286.50 C580.00,254.32 579.66,228.00 579.25,228.01 C578.84,228.01 572.65,228.68 565.50,229.49 C554.36,230.75 545.44,232.20 519.00,237.05 C506.64,239.33 472.32,249.77 457.00,255.92 L 450.50 258.53 L 450.20 280.52 C449.85,306.08 451.18,330.03 453.99,348.76 C456.48,365.39 457.81,370.71 459.66,371.42 C460.46,371.73 465.25,370.99 470.31,369.78 C478.75,367.75 482.03,367.57 510.50,367.55 C548.18,367.53 551.86,368.02 608.00,380.58 C613.78,381.87 620.08,383.40 622.00,383.98 C633.10,387.33 662.58,392.72 679.50,394.49 C713.50,398.06 743.94,395.04 768.50,385.66 C779.73,381.37 791.02,373.10 795.65,365.76 C798.41,361.40 801.29,349.35 803.01,335.00 C804.30,324.28 805.61,264.55 804.64,260.69 C804.12,258.64 802.48,257.59 795.75,255.01 C781.49,249.53 757.62,241.93 756.28,242.45 C755.58,242.72 755.00,242.54 755.00,242.06 C755.00,241.58 754.10,241.42 753.00,241.71 C751.77,242.03 751.00,241.74 751.00,240.95 C751.00,240.24 750.70,239.96 750.34,240.32 C749.98,240.69 749.08,240.48 748.34,239.87 C747.60,239.26 747.00,239.09 747.00,239.50 C747.00,239.91 746.33,239.69 745.51,239.01 C744.69,238.33 743.34,238.04 742.51,238.36 C741.68,238.68 741.00,238.53 741.00,238.03 C741.00,237.53 740.21,237.10 739.25,237.08 C735.14,236.96 733.44,236.68 732.50,235.97 C731.26,235.04 721.47,232.99 715.75,232.47 C713.41,232.26 710.38,231.85 709.00,231.57 C695.14,228.72 679.49,227.41 677.13,228.90 C675.99,229.62 675.78,239.40 675.90,286.72 L 676.05 343.67 L 672.16 344.83 C670.02,345.48 667.97,346.00 667.61,346.00 C667.25,346.00 667.08,311.69 667.23,269.75 L 667.50 193.50 L 669.81 189.17 C671.35,186.29 673.26,184.37 675.53,183.42 C679.70,181.68 680.17,181.67 682.38,183.29 C684.05,184.51 684.03,184.85 681.97,190.04 C679.20,197.00 677.02,204.04 677.01,206.11 C677.00,207.37 678.48,207.87 683.75,208.41 C704.32,210.49 730.60,215.15 752.00,220.52 C777.42,226.89 819.60,241.18 823.00,244.57 C825.37,246.94 825.14,312.19 822.69,332.00 C818.66,364.70 810.85,393.58 800.54,413.91 C796.62,421.65 796.62,421.65 806.80,414.85 ZM 719.20 359.80 C717.25,357.85 717.82,356.00 720.38,356.00 C723.04,356.00 725.51,358.36 724.53,359.96 C723.66,361.36 720.68,361.28 719.20,359.80 ZM 692.00 357.08 C692.00,355.86 692.65,355.00 693.57,355.00 C694.50,355.00 695.01,355.68 694.82,356.67 C694.34,359.18 692.00,359.52 692.00,357.08 ZM 770.30 332.40 L 767.11 328.81 L 769.80 326.44 C771.29,325.13 772.79,324.05 773.14,324.03 C773.50,324.01 775.18,325.30 776.89,326.90 C779.31,329.16 779.66,329.92 778.49,330.37 C777.66,330.68 776.46,332.08 775.83,333.47 C775.20,334.86 774.41,336.00 774.09,335.99 C773.77,335.99 772.06,334.37 770.30,332.40 ZM 604.67 334.33 C604.30,333.97 604.00,330.37 604.00,326.33 L 604.00 319.00 L 628.00 319.00 L 652.00 319.00 L 652.00 327.00 L 652.00 335.00 L 628.67 335.00 C615.83,335.00 605.03,334.70 604.67,334.33 ZM 480.59 327.50 C479.69,326.12 478.29,325.00 477.48,325.00 C475.24,325.00 475.80,323.78 479.42,320.79 L 482.69 318.07 L 485.45 320.94 L 488.20 323.81 L 485.91 326.91 C483.15,330.65 482.69,330.70 480.59,327.50 ZM 721.18 318.25 C721.42,316.24 722.13,315.41 723.87,315.17 C726.95,314.73 728.00,315.96 726.93,318.75 C726.34,320.28 725.24,321.00 723.47,321.00 C721.22,321.00 720.91,320.63 721.18,318.25 ZM 525.36 318.49 C524.41,316.01 527.57,313.24 529.77,314.63 C530.72,315.23 531.50,316.57 531.50,317.61 C531.50,320.13 526.28,320.88 525.36,318.49 ZM 772.05 309.56 C771.15,308.48 771.14,307.61 772.00,306.00 C773.55,303.10 777.38,303.68 777.84,306.89 C778.36,310.55 774.40,312.39 772.05,309.56 ZM 747.44 295.66 C745.74,292.23 744.42,291.12 739.94,289.32 L 734.51 287.14 L 737.48 286.01 C739.12,285.38 740.79,284.34 741.19,283.69 C741.60,283.03 742.51,282.50 743.21,282.50 C743.92,282.50 745.68,280.09 747.11,277.14 C749.54,272.15 749.77,271.95 750.36,274.31 C751.32,278.12 755.93,283.06 760.38,285.06 L 764.34 286.83 L 760.43 288.46 C756.15,290.25 752.00,293.71 752.00,295.48 C752.00,296.11 751.44,297.34 750.75,298.22 C749.66,299.62 749.24,299.29 747.44,295.66 ZM 504.06 297.98 C504.03,297.15 502.85,294.78 501.45,292.72 C499.55,289.92 497.79,288.67 494.52,287.79 L 490.13 286.62 L 493.89 284.94 C498.26,282.98 501.90,278.77 502.71,274.72 L 503.27 271.89 L 505.02 275.70 C507.29,280.65 510.44,283.87 514.81,285.69 L 518.34 287.17 L 514.34 288.96 C510.67,290.60 508.46,292.72 505.31,297.64 C504.38,299.09 504.10,299.17 504.06,297.98 ZM 605.25 291.34 C604.42,291.00 604.00,288.51 604.00,283.92 L 604.00 277.00 L 628.00 277.00 L 652.00 277.00 L 652.00 284.50 L 652.00 292.00 L 629.25 291.92 C616.74,291.88 605.94,291.62 605.25,291.34 ZM 710.10 277.09 C708.20,275.88 709.47,273.00 711.91,273.00 C714.29,273.00 715.22,274.27 714.40,276.41 C713.72,278.18 712.21,278.42 710.10,277.09 Z" fill="rgb(254,254,254)"/>
</g>
</svg>