<svg xmlns="http://www.w3.org/2000/svg" width="1255" height="836" viewBox="0 0 1255 836">
<g>
<path d="M 652.38 640.20 C646.39,643.35 638.53,647.24 634.89,648.84 L 628.28 651.76 L 615.89 646.10 C585.69,632.31 551.04,609.85 524.50,586.88 C468.34,538.26 430.82,475.55 415.53,404.72 C407.29,366.57 405.47,347.51 405.61,301.00 C405.68,280.38 406.13,260.81 406.62,257.53 L 407.50 251.56 L 414.50 248.63 C463.57,228.15 520.27,214.72 574.85,210.65 L 581.20 210.17 L 580.60 212.84 C580.26,214.30 579.71,219.63 579.35,224.69 L 578.71 233.87 L 575.11 234.39 C573.12,234.67 567.90,235.17 563.50,235.51 C553.74,236.24 528.90,240.14 512.00,243.59 C486.15,248.87 467.23,254.51 437.83,265.71 L 431.15 268.26 L 430.60 272.88 C429.23,284.40 428.91,313.05 429.96,330.00 C433.65,389.38 445.50,435.69 468.01,478.72 C492.46,525.47 527.85,564.35 574.50,595.71 C585.18,602.89 598.38,610.54 615.34,619.40 L 627.71 625.85 L 632.21 624.24 C636.54,622.68 636.89,622.71 642.10,624.95 C645.07,626.23 651.10,628.53 655.50,630.05 C659.90,631.58 663.44,633.20 663.38,633.65 C663.31,634.11 658.36,637.05 652.38,640.20 ZM 817.86 429.61 C811.75,435.48 798.00,445.83 798.00,444.56 C798.00,444.23 799.64,440.70 801.64,436.73 C811.54,417.06 819.13,389.13 822.98,358.20 C826.67,328.60 827.62,295.10 825.40,273.30 L 824.87 268.10 L 814.68 264.12 C776.80,249.34 735.57,239.65 690.50,234.94 C684.45,234.30 679.16,233.58 678.75,233.33 C676.69,232.09 679.93,220.43 683.52,216.15 C689.85,208.63 682.22,203.36 674.64,210.01 C667.48,216.30 667.56,215.63 667.21,272.00 C667.02,302.05 666.51,322.88 665.95,323.45 C665.35,324.05 665.00,323.20 665.00,321.14 C665.00,319.22 664.59,318.14 664.00,318.50 C663.38,318.88 662.98,316.91 662.94,313.31 C662.91,310.11 662.35,305.92 661.69,304.00 C660.68,301.04 660.03,300.50 657.50,300.50 C654.54,300.50 654.50,300.43 654.19,294.54 C654.03,291.26 654.41,287.60 655.05,286.40 C655.84,284.93 655.90,283.65 655.25,282.48 C654.14,280.50 647.83,278.04 643.82,278.02 C640.66,278.00 635.80,279.70 634.92,281.13 C634.58,281.69 630.85,282.18 626.64,282.22 C619.56,282.29 618.82,282.10 616.71,279.65 C614.84,277.46 613.59,277.00 609.61,277.00 C605.66,277.00 604.43,277.45 602.82,279.50 C601.71,280.91 599.82,282.00 598.49,282.00 C595.03,282.00 594.58,283.45 594.81,293.64 C594.98,300.72 594.68,303.18 593.51,304.34 C592.68,305.18 592.00,306.43 592.00,307.13 C592.00,308.02 591.68,308.08 590.95,307.35 C590.24,306.64 590.00,291.77 590.20,261.40 L 590.50 216.50 L 593.41 210.21 C598.79,198.54 609.80,190.99 621.43,191.01 C629.11,191.01 633.56,192.66 639.06,197.55 C641.81,200.00 644.95,202.00 646.03,202.00 C648.42,202.00 648.43,202.03 646.27,208.12 L 644.53 213.00 L 638.59 213.00 C633.07,213.00 632.41,212.75 629.44,209.50 C626.70,206.52 625.59,206.00 621.87,206.02 C615.33,206.04 610.17,209.41 606.80,215.87 C605.13,219.06 604.00,222.80 604.00,225.11 L 604.00 229.00 L 608.39 229.00 C612.24,229.00 612.86,228.69 613.41,226.50 L 614.04 224.00 L 644.50 224.00 L 643.86 240.77 L 623.93 241.50 L 604.00 242.23 L 604.00 274.03 L 628.75 273.77 L 653.50 273.50 L 654.50 216.50 L 657.39 210.25 C661.68,200.96 669.79,194.07 678.33,192.47 C686.28,190.97 695.38,197.21 698.93,206.58 L 700.79 211.50 L 709.65 212.77 C754.58,219.19 793.40,229.35 831.50,244.66 C840.30,248.20 847.81,251.41 848.19,251.80 C848.57,252.18 849.43,264.07 850.09,278.20 C851.01,298.00 851.02,309.08 850.12,326.39 C848.24,362.43 843.18,396.54 838.53,404.50 C834.93,410.67 824.91,422.84 817.86,429.61 ZM 692.44 615.95 C686.48,619.83 680.68,622.97 679.55,622.94 C676.85,622.86 656.97,616.29 645.00,611.52 C618.42,600.91 589.05,583.50 563.50,563.21 C549.40,552.01 524.97,527.81 516.47,516.64 C499.77,494.67 499.36,493.90 505.75,496.50 C511.46,498.83 515.12,503.33 514.67,507.46 C514.46,509.33 514.56,511.22 514.90,511.68 C516.53,513.90 524.11,519.00 525.78,519.00 C528.71,519.00 534.28,523.87 538.59,530.20 C540.74,533.37 542.76,535.96 543.08,535.98 C543.40,535.99 549.02,540.07 555.58,545.05 C566.98,553.71 574.10,557.70 596.48,567.96 C603.52,571.19 606.93,572.17 612.30,572.47 C618.05,572.80 619.45,572.55 621.07,570.93 C622.35,569.65 624.38,569.00 627.10,569.00 C629.35,569.00 632.39,568.36 633.85,567.58 C635.31,566.81 639.65,564.92 643.50,563.40 C647.35,561.88 650.95,560.31 651.50,559.92 C653.59,558.44 669.84,555.69 677.83,555.47 C686.72,555.22 687.41,554.92 688.35,550.92 C688.87,548.70 688.44,548.08 685.23,546.45 C683.18,545.40 680.15,544.29 678.50,543.97 C676.85,543.66 684.28,543.35 695.00,543.29 C716.32,543.16 726.99,542.07 743.00,538.36 C756.77,535.17 767.07,531.83 778.32,526.90 C783.37,524.69 788.14,522.60 788.92,522.27 C793.37,520.35 768.43,551.38 752.92,567.04 C734.30,585.85 716.20,600.48 692.44,615.95 ZM 731.70 529.86 C729.07,530.52 724.79,531.26 722.20,531.52 L 717.50 531.99 L 721.50 530.49 C724.92,529.21 730.87,527.69 742.00,525.27 C743.38,524.97 744.16,525.09 743.75,525.53 C743.34,525.97 741.81,526.46 740.34,526.61 C738.88,526.77 737.42,527.30 737.09,527.79 C736.77,528.28 734.34,529.21 731.70,529.86 ZM 719.94 547.96 C721.12,548.69 727.80,548.29 728.84,547.43 C729.03,547.28 727.10,546.84 724.55,546.45 C719.75,545.74 717.52,546.47 719.94,547.96 ZM 600.98 291.19 C600.99,292.67 600.55,294.16 600.00,294.50 C598.72,295.29 598.72,291.98 600.00,290.00 C600.76,288.83 600.97,289.09 600.98,291.19 Z" fill="rgb(26,66,108)"/>
<path d="M 590.22 294.27 C590.33,302.68 590.58,306.98 590.95,307.35 C591.68,308.08 592.00,308.02 592.00,307.13 C592.00,306.43 592.68,305.18 593.51,304.34 C594.68,303.18 594.98,300.72 594.81,293.64 C594.58,283.45 595.03,282.00 598.49,282.00 C599.82,282.00 601.71,280.91 602.82,279.50 C604.43,277.45 605.66,277.00 609.61,277.00 C613.59,277.00 614.84,277.46 616.71,279.65 C618.82,282.10 619.56,282.29 626.64,282.22 C630.85,282.18 634.58,281.69 634.92,281.13 C635.80,279.70 640.66,278.00 643.82,278.02 C647.83,278.04 654.14,280.50 655.25,282.48 C655.90,283.65 655.84,284.93 655.05,286.40 C654.41,287.60 654.03,291.26 654.19,294.54 C654.50,300.43 654.54,300.50 657.50,300.50 C660.03,300.50 660.68,301.04 661.69,304.00 C662.35,305.92 662.91,310.11 662.94,313.31 C662.98,316.91 663.38,318.88 664.00,318.50 C664.59,318.14 665.00,319.22 665.00,321.14 C665.00,323.20 665.35,324.05 665.95,323.45 C666.51,322.88 667.02,302.05 667.21,272.00 C667.34,250.89 667.41,237.78 667.82,229.30 C667.50,239.13 667.43,257.89 667.36,296.00 C667.28,336.98 667.40,370.81 667.63,371.19 C668.32,372.33 675.49,369.41 675.69,367.90 C675.80,367.13 676.19,362.90 676.58,358.50 C676.96,354.10 677.49,351.17 677.76,352.00 C678.03,352.83 679.04,354.40 680.00,355.50 C680.96,356.60 682.36,358.84 683.13,360.48 C684.19,362.77 685.37,363.61 688.20,364.07 C690.23,364.40 692.65,365.29 693.56,366.05 C696.27,368.30 701.62,369.79 703.40,368.80 C705.19,367.79 705.57,363.47 703.95,362.47 C703.23,362.03 703.27,361.38 704.06,360.42 C704.70,359.65 705.56,359.23 705.98,359.49 C706.39,359.74 708.50,359.09 710.67,358.04 C715.03,355.94 717.00,352.66 717.00,347.52 C717.00,344.74 717.36,344.15 719.00,344.27 C720.10,344.36 721.00,345.02 721.00,345.74 C721.00,348.41 724.12,348.26 727.06,345.44 C728.68,343.89 730.00,343.18 730.00,343.85 C730.00,345.74 733.89,343.33 735.10,340.69 C735.65,339.48 737.65,337.48 739.55,336.24 C742.37,334.39 743.00,333.36 743.00,330.55 C743.00,328.66 743.40,326.87 743.88,326.57 C744.36,326.27 744.98,324.91 745.24,323.54 C745.76,320.83 743.46,318.00 740.73,318.00 C738.71,318.00 737.61,316.36 739.04,315.47 C742.14,313.56 749.00,320.02 749.00,324.85 C749.00,328.71 750.89,328.03 752.92,323.45 C754.34,320.24 755.34,319.09 756.23,319.65 C758.25,320.91 760.33,320.97 761.72,319.82 C762.42,319.23 763.01,319.15 763.03,319.63 C763.05,320.11 763.53,319.69 764.11,318.70 C764.86,317.40 764.82,316.49 763.96,315.45 C763.11,314.42 763.08,314.00 763.88,314.00 C766.12,314.00 764.92,312.41 761.75,311.17 L 758.50 309.91 L 761.50 308.59 C763.15,307.86 767.42,304.05 771.00,300.11 C774.58,296.17 778.94,292.24 780.69,291.39 C782.89,290.31 783.98,289.00 784.19,287.17 C784.40,285.42 785.18,284.41 786.50,284.21 C788.93,283.83 793.27,281.81 794.11,280.67 C794.75,279.80 801.48,281.35 803.94,282.93 C805.13,283.69 805.39,287.91 805.41,306.68 C805.44,336.68 803.16,357.79 796.43,389.79 C794.82,397.45 775.06,408.62 752.81,414.46 C735.79,418.92 720.91,420.33 697.50,419.69 C670.24,418.93 656.84,416.89 617.50,407.50 C593.56,401.78 592.90,401.50 601.04,400.58 C604.58,400.17 607.97,399.44 608.57,398.94 C609.26,398.37 610.45,398.77 611.81,400.04 C614.22,402.28 619.09,403.56 621.58,402.61 C623.09,402.03 623.09,401.79 621.61,399.52 C619.71,396.63 619.62,396.00 621.10,396.00 C623.39,396.00 628.12,391.66 633.08,384.99 C638.43,377.79 642.69,374.55 649.50,372.49 L 653.50 371.28 L 653.78 358.64 L 654.06 346.00 L 603.00 346.00 L 603.00 353.50 C603.00,357.62 603.43,361.00 603.95,361.00 C605.44,361.00 600.89,365.38 596.88,367.81 C596.31,368.15 595.79,368.51 595.31,368.84 C594.10,369.66 593.16,370.30 592.43,370.12 C589.90,369.47 589.95,358.81 590.15,311.11 C590.17,305.95 590.19,300.34 590.22,294.27 ZM 695.69 543.28 C695.46,543.28 695.23,543.29 695.00,543.29 C684.28,543.35 676.85,543.66 678.50,543.97 C680.15,544.29 683.18,545.40 685.23,546.45 C688.44,548.08 688.87,548.70 688.35,550.92 C687.41,554.92 686.72,555.22 677.83,555.47 C669.84,555.69 653.59,558.44 651.50,559.92 C650.95,560.31 647.35,561.88 643.50,563.40 C639.65,564.92 635.31,566.81 633.85,567.58 C632.39,568.36 629.35,569.00 627.10,569.00 C624.38,569.00 622.35,569.65 621.07,570.93 C619.45,572.55 618.05,572.80 612.30,572.47 C606.93,572.17 603.52,571.19 596.48,567.96 C574.10,557.70 566.98,553.71 555.58,545.05 C549.02,540.07 543.40,535.99 543.08,535.98 C542.76,535.96 540.74,533.37 538.59,530.20 C534.28,523.87 528.71,519.00 525.78,519.00 C524.11,519.00 516.53,513.90 514.90,511.68 C514.56,511.22 514.46,509.33 514.67,507.46 C515.12,503.33 511.46,498.83 505.75,496.50 C499.44,493.93 499.76,494.65 515.81,515.77 C511.02,509.85 506.52,503.79 502.33,497.63 C497.36,490.33 497.69,489.89 508.29,489.79 C515.14,489.73 528.26,492.93 534.20,496.10 C536.95,497.58 553.06,500.12 555.24,499.42 C556.21,499.12 557.00,498.45 557.00,497.93 C557.00,496.58 561.38,496.79 565.73,498.36 C567.80,499.11 571.53,500.21 574.00,500.80 C578.10,501.79 578.82,501.67 582.09,499.41 C586.01,496.72 589.00,497.02 589.00,500.11 C589.00,502.38 590.30,502.55 592.00,500.50 C592.68,499.67 592.93,499.00 592.54,499.00 C592.15,499.00 593.26,497.20 595.00,495.00 C597.40,491.97 598.88,491.00 601.08,491.00 C602.69,491.00 603.99,490.66 603.97,490.25 C603.96,489.84 601.25,487.70 597.96,485.50 C591.63,481.27 590.68,479.75 590.57,473.75 C590.51,470.78 590.87,470.00 592.30,470.00 C593.29,470.00 601.61,472.01 610.80,474.47 C629.17,479.38 641.56,482.00 659.00,484.64 C675.38,487.13 711.52,487.12 726.00,484.63 C745.63,481.25 759.10,477.44 775.00,470.75 C794.09,462.73 802.50,457.69 816.86,445.70 C821.46,441.85 824.75,439.60 824.17,440.69 C823.06,442.76 823.09,442.78 828.08,443.24 C830.67,443.47 830.31,445.90 826.15,456.29 C818.73,474.82 814.99,481.19 806.59,489.62 C798.86,497.37 782.58,509.06 775.00,512.30 C773.08,513.13 769.59,514.59 767.25,515.55 C764.91,516.51 763.00,517.60 763.00,517.97 C763.00,518.55 759.13,520.21 743.00,526.57 C725.17,533.59 682.14,538.64 654.50,536.95 C649.55,536.65 645.31,536.53 645.08,536.70 C644.07,537.43 646.21,538.08 654.08,539.42 C668.42,541.88 682.28,543.16 695.69,543.28 ZM 603.34 307.25 L 602.70 317.00 L 654.09 317.00 L 653.80 310.29 C653.52,304.10 653.31,303.53 651.00,302.89 C649.62,302.51 649.12,302.15 649.88,302.10 C650.92,302.02 651.13,300.87 650.74,297.42 C650.12,291.93 650.84,288.15 652.12,290.17 C652.70,291.08 652.97,290.64 652.98,288.75 L 653.00 286.00 L 604.00 286.00 L 603.99 291.75 C603.99,294.91 603.70,301.89 603.34,307.25 ZM 725.55 464.19 C718.49,465.83 712.05,466.40 696.25,466.76 C682.42,467.08 676.00,466.90 676.00,466.18 C676.00,465.60 679.15,464.81 683.00,464.43 C688.72,463.87 690.00,463.42 690.00,462.00 C690.00,459.83 695.87,458.10 705.00,457.58 C710.99,457.23 718.95,456.51 728.22,455.48 C730.92,455.18 732.19,455.51 732.85,456.69 C733.37,457.62 734.41,458.06 735.31,457.71 C736.17,457.38 737.12,457.65 737.44,458.31 C737.87,459.23 738.13,459.23 738.56,458.31 C738.88,457.65 739.75,457.35 740.51,457.64 C741.53,458.03 741.78,457.51 741.44,455.66 C740.83,452.26 742.81,450.51 752.63,445.82 C761.17,441.75 762.60,441.43 767.29,442.57 C769.27,443.05 770.70,442.72 772.29,441.40 C773.50,440.39 772.51,441.67 770.07,444.25 C762.84,451.90 746.08,459.41 725.55,464.19 ZM 743.88 439.09 C741.47,439.73 737.14,440.46 734.25,440.72 C730.08,441.09 728.88,440.86 728.40,439.59 C728.06,438.72 727.25,438.00 726.59,438.00 C725.94,438.00 724.86,437.46 724.19,436.79 C723.25,435.85 725.23,435.19 733.24,433.78 C738.88,432.78 745.03,431.68 746.91,431.33 C749.16,430.90 750.09,431.04 749.67,431.73 C749.31,432.30 749.70,433.34 750.53,434.03 C751.87,435.13 751.82,435.44 750.15,436.61 C749.11,437.34 746.29,438.45 743.88,439.09 ZM 770.50 358.65 C773.18,361.37 773.59,361.51 774.35,359.96 C774.82,359.01 776.36,357.70 777.77,357.06 L 780.34 355.89 L 777.28 354.03 C775.60,353.00 774.04,351.62 773.82,350.95 C773.57,350.20 772.30,350.85 770.46,352.68 L 767.50 355.62 ZM 731.70 529.86 C734.34,529.21 736.77,528.28 737.09,527.79 C737.42,527.30 738.88,526.77 740.34,526.61 C741.81,526.46 743.34,525.97 743.75,525.53 C744.16,525.09 743.38,524.97 742.00,525.27 C730.87,527.69 724.92,529.21 721.50,530.49 L 717.50 531.99 L 722.20 531.52 C724.79,531.26 729.07,530.52 731.70,529.86 ZM 671.00 464.65 C673.29,465.86 672.95,465.96 667.00,465.89 C663.42,465.84 658.47,465.26 656.00,464.59 L 651.50 463.37 L 655.86 462.65 C658.60,462.21 660.72,462.35 661.55,463.04 C662.28,463.65 664.14,463.96 665.69,463.74 C667.23,463.52 669.62,463.93 671.00,464.65 ZM 782.32 276.45 C781.97,278.36 778.28,278.79 775.18,277.29 C773.45,276.45 772.25,275.41 772.52,274.97 C772.79,274.53 772.45,273.97 771.76,273.72 C771.07,273.48 770.78,272.97 771.12,272.60 C771.98,271.66 782.54,275.29 782.32,276.45 ZM 773.01 334.51 C774.74,336.59 776.75,336.37 777.50,334.01 C778.31,331.44 777.38,330.00 774.91,330.00 C772.44,330.00 771.37,332.54 773.01,334.51 ZM 784.52 426.96 C781.58,432.76 780.50,433.68 780.50,430.40 C780.50,429.08 780.86,428.00 781.31,428.00 C781.75,428.00 781.84,427.55 781.50,427.00 C781.16,426.45 781.61,426.00 782.50,426.00 C783.39,426.00 783.94,425.66 783.72,425.25 C783.50,424.84 784.15,423.71 785.16,422.75 C787.59,420.44 787.48,421.11 784.52,426.96 ZM 721.25 385.35 C723.43,388.41 723.51,388.43 723.83,386.18 C724.31,382.79 723.34,381.00 721.03,381.00 C718.46,381.00 718.49,381.47 721.25,385.35 ZM 719.94 547.96 C717.52,546.47 719.75,545.74 724.55,546.45 C727.10,546.84 729.03,547.28 728.84,547.43 C727.80,548.29 721.12,548.69 719.94,547.96 ZM 692.00 382.00 C692.00,383.11 692.67,384.00 693.50,384.00 C694.33,384.00 695.00,383.11 695.00,382.00 C695.00,380.89 694.33,380.00 693.50,380.00 C692.67,380.00 692.00,380.89 692.00,382.00 ZM 600.98 291.19 C600.97,289.09 600.76,288.83 600.00,290.00 C598.72,291.98 598.72,295.29 600.00,294.50 C600.55,294.16 600.99,292.67 600.98,291.19 ZM 524.94 526.53 C533.69,536.06 545.91,548.04 555.95,556.86 C544.82,547.35 534.42,537.19 524.94,526.53 ZM 587.00 504.00 C588.94,505.25 590.00,505.25 590.00,504.00 C590.00,503.45 588.99,503.01 587.75,503.02 C585.93,503.03 585.79,503.22 587.00,504.00 ZM 773.60 280.27 C773.94,280.60 774.02,281.44 773.79,282.14 C773.45,283.15 773.21,283.15 772.58,282.13 C771.75,280.78 772.59,279.25 773.60,280.27 ZM 655.91 615.60 C666.44,619.36 677.58,622.88 679.55,622.94 C676.51,622.85 666.91,619.76 655.91,615.60 ZM 669.22 217.58 C670.27,213.76 671.94,212.38 674.64,210.01 C675.49,209.27 676.33,208.67 677.16,208.22 C674.16,210.00 670.99,213.51 669.35,217.26 C669.31,217.37 669.26,217.48 669.22,217.58 ZM 736.06 539.87 C727.56,541.57 720.03,542.49 710.41,542.93 C719.16,542.43 727.70,541.41 736.06,539.87 ZM 574.90 571.89 C585.82,579.86 597.22,587.25 608.65,593.78 C596.94,587.14 585.65,579.81 574.90,571.89 ZM 680.87 207.00 C682.72,206.83 684.23,207.42 685.10,208.52 C684.27,207.57 682.85,207.01 680.87,207.00 ZM 768.96 530.72 C772.11,529.53 775.23,528.26 778.32,526.90 C775.16,528.29 772.07,529.55 768.96,530.72 Z" fill="rgb(32,145,173)"/>
<path d="M 649.00 361.01 C652.48,363.30 653.49,361.77 653.79,353.74 L 654.03 347.56 L 653.78 358.64 L 653.50 371.28 L 649.50 372.49 C642.69,374.55 638.43,377.79 633.08,384.99 C628.12,391.66 623.39,396.00 621.10,396.00 C619.62,396.00 619.71,396.63 621.61,399.52 C623.09,401.79 623.09,402.03 621.58,402.61 C619.09,403.56 614.22,402.28 611.81,400.04 C610.45,398.77 609.26,398.37 608.57,398.94 C607.97,399.44 604.58,400.17 601.04,400.58 C592.90,401.50 593.56,401.78 617.50,407.50 C632.01,410.96 642.99,413.43 652.44,415.20 C643.19,413.50 632.73,411.18 619.50,408.01 C592.90,401.64 563.83,396.19 544.00,393.84 C527.06,391.84 485.86,392.13 471.69,394.35 C465.19,395.37 459.71,396.04 459.51,395.85 C458.76,395.09 452.97,357.94 451.98,347.50 C450.46,331.51 449.60,299.72 450.43,290.83 L 451.16 283.17 L 460.83 279.62 C481.06,272.20 511.03,264.42 536.00,260.09 C547.80,258.05 572.42,255.00 577.15,255.00 L 579.79 255.00 L 580.15 311.08 C580.49,365.22 580.57,367.21 582.44,368.58 C583.51,369.36 585.63,370.00 587.16,370.00 L 589.94 370.00 L 590.07 335.78 C590.03,362.72 590.41,369.60 592.43,370.12 C593.16,370.30 594.10,369.66 595.31,368.84 C595.79,368.51 596.31,368.15 596.88,367.81 C600.89,365.38 605.44,361.00 603.95,361.00 C603.43,361.00 603.00,357.62 603.00,353.50 L 603.00 346.00 L 604.00 346.00 L 604.00 360.00 L 625.75 360.02 C638.29,360.02 648.13,360.45 649.00,361.01 ZM 743.88 439.09 C746.29,438.45 749.11,437.34 750.15,436.61 C751.82,435.44 751.87,435.13 750.53,434.03 C749.70,433.34 749.31,432.30 749.67,431.73 C750.09,431.04 749.16,430.90 746.91,431.33 C745.77,431.54 743.06,432.03 739.84,432.61 C743.71,431.66 747.83,430.41 753.00,428.76 C767.07,424.25 775.57,420.26 785.35,413.57 C791.98,409.03 792.04,409.01 791.35,411.73 C788.38,423.56 782.28,433.70 772.92,442.37 C770.32,444.78 767.38,447.04 764.14,449.15 C766.52,447.54 768.52,445.90 770.07,444.25 C772.51,441.67 773.50,440.39 772.29,441.40 C770.70,442.72 769.27,443.05 767.29,442.57 C762.60,441.43 761.17,441.75 752.63,445.82 C742.81,450.51 740.83,452.26 741.44,455.66 C741.78,457.51 741.53,458.03 740.51,457.64 C739.75,457.35 738.88,457.65 738.56,458.31 C738.13,459.23 737.87,459.23 737.44,458.31 C737.12,457.65 736.17,457.38 735.31,457.71 C734.41,458.06 733.37,457.62 732.85,456.69 C732.19,455.51 730.92,455.18 728.22,455.48 C718.95,456.51 710.99,457.23 705.00,457.58 C695.87,458.10 690.00,459.83 690.00,462.00 C690.00,463.42 688.72,463.87 683.00,464.43 C679.15,464.81 676.00,465.60 676.00,466.18 C676.00,466.90 682.42,467.08 696.25,466.76 C704.26,466.58 709.86,466.34 714.36,465.94 C711.46,466.34 708.50,466.67 705.50,466.93 C694.17,467.92 680.17,468.11 673.50,467.37 C646.63,464.36 632.92,461.42 595.16,450.55 C546.20,436.47 520.78,432.07 486.08,431.69 L 468.66 431.50 L 466.35 424.00 C463.63,415.19 463.49,413.41 465.46,412.65 C470.72,410.64 490.40,408.77 506.50,408.76 C532.60,408.74 555.72,411.77 589.50,419.64 C646.49,432.91 663.40,435.36 698.50,435.42 C713.41,435.45 722.18,435.32 729.48,434.47 C724.61,435.44 723.42,436.02 724.19,436.79 C724.86,437.46 725.94,438.00 726.59,438.00 C727.25,438.00 728.06,438.72 728.40,439.59 C728.88,440.86 730.08,441.09 734.25,440.72 C737.14,440.46 741.47,439.73 743.88,439.09 ZM 748.17 321.61 L 750.43 325.87 L 752.48 322.22 C754.31,318.95 756.59,316.97 762.60,313.41 C764.20,312.46 763.87,312.15 759.97,310.91 C756.28,309.75 755.07,308.70 753.00,304.89 L 750.50 300.27 L 748.39 304.39 C747.02,307.07 744.78,309.34 741.96,310.92 L 737.64 313.35 L 741.78 315.35 C741.96,315.44 742.15,315.53 742.33,315.63 C741.09,315.06 739.92,314.93 739.04,315.47 C737.61,316.36 738.71,318.00 740.73,318.00 C743.46,318.00 745.76,320.83 745.24,323.54 C744.98,324.91 744.36,326.27 743.88,326.57 C743.40,326.87 743.00,328.66 743.00,330.55 C743.00,333.36 742.37,334.39 739.55,336.24 C737.65,337.48 735.65,339.48 735.10,340.69 C733.89,343.33 730.00,345.74 730.00,343.85 C730.00,343.18 728.68,343.89 727.06,345.44 C724.12,348.26 721.00,348.41 721.00,345.74 C721.00,345.02 720.10,344.36 719.00,344.27 C717.36,344.15 717.00,344.74 717.00,347.52 C717.00,352.66 715.03,355.94 710.67,358.04 C708.50,359.09 706.39,359.74 705.98,359.49 C705.56,359.23 704.70,359.65 704.06,360.42 C703.27,361.38 703.23,362.03 703.95,362.47 C705.57,363.47 705.19,367.79 703.40,368.80 C701.62,369.79 696.27,368.30 693.56,366.05 C692.65,365.29 690.23,364.40 688.20,364.07 C685.37,363.61 684.19,362.77 683.13,360.48 C682.36,358.84 680.96,356.60 680.00,355.50 C679.04,354.40 678.03,352.83 677.76,352.00 C677.49,351.17 676.96,354.10 676.58,358.50 C676.37,360.84 676.17,363.13 676.00,364.88 L 676.00 312.08 C676.00,280.75 676.34,254.94 676.75,254.72 C677.83,254.15 707.29,257.63 722.00,260.07 C743.50,263.64 767.43,269.91 791.00,278.17 C795.27,279.66 798.23,280.56 800.29,281.40 C797.56,280.57 794.53,280.10 794.11,280.67 C793.27,281.81 788.93,283.83 786.50,284.21 C785.18,284.41 784.40,285.42 784.19,287.17 C783.98,289.00 782.89,290.31 780.69,291.39 C778.94,292.24 774.58,296.17 771.00,300.11 C767.42,304.05 763.15,307.86 761.50,308.59 L 758.50 309.91 L 761.75 311.17 C764.92,312.41 766.12,314.00 763.88,314.00 C763.08,314.00 763.11,314.42 763.96,315.45 C764.82,316.49 764.86,317.40 764.11,318.70 C763.53,319.69 763.05,320.11 763.03,319.63 C763.01,319.15 762.42,319.23 761.72,319.82 C760.33,320.97 758.25,320.91 756.23,319.65 C755.34,319.09 754.34,320.24 752.92,323.45 C750.89,328.03 749.00,328.71 749.00,324.85 C749.00,323.73 748.63,322.52 748.03,321.35 C748.07,321.44 748.12,321.52 748.17,321.61 ZM 588.00 468.01 C603.33,472.44 615.76,475.84 626.53,478.45 C621.64,477.30 616.51,475.99 610.80,474.47 C601.61,472.01 593.29,470.00 592.30,470.00 C590.87,470.00 590.51,470.78 590.57,473.75 C590.68,479.75 591.63,481.27 597.96,485.50 C601.25,487.70 603.96,489.84 603.97,490.25 C603.99,490.66 602.69,491.00 601.08,491.00 C598.88,491.00 597.40,491.97 595.00,495.00 C593.26,497.20 592.15,499.00 592.54,499.00 C592.93,499.00 592.68,499.67 592.00,500.50 C590.30,502.55 589.00,502.38 589.00,500.11 C589.00,497.02 586.01,496.72 582.09,499.41 C578.82,501.67 578.10,501.79 574.00,500.80 C571.53,500.21 567.80,499.11 565.73,498.36 C561.38,496.79 557.00,496.58 557.00,497.93 C557.00,498.45 556.21,499.12 555.24,499.42 C553.06,500.12 536.95,497.58 534.20,496.10 C528.26,492.93 515.14,489.73 508.29,489.79 C497.85,489.88 497.37,490.31 502.10,497.30 C494.97,486.89 488.59,476.10 483.02,465.00 L 482.52 464.00 C478.40,455.78 476.94,452.87 477.81,451.72 C478.33,451.04 479.65,450.97 481.72,450.79 C502.18,449.02 547.85,456.42 588.00,468.01 ZM 603.34 307.25 C603.70,301.89 603.99,294.91 603.99,291.75 L 604.00 286.00 L 653.00 286.00 L 652.98 288.75 C652.97,290.64 652.70,291.08 652.12,290.17 C650.84,288.15 650.12,291.93 650.74,297.42 C651.13,300.87 650.92,302.02 649.88,302.10 C649.12,302.15 649.62,302.51 651.00,302.89 C651.93,303.15 652.52,303.39 652.91,304.00 L 604.00 304.00 L 604.00 317.00 L 602.70 317.00 ZM 499.50 317.36 C502.80,319.88 505.81,321.95 506.18,321.97 C506.56,321.98 507.16,321.08 507.52,319.94 C507.88,318.81 509.92,316.62 512.07,315.07 L 515.97 312.24 L 512.14 309.71 C510.04,308.32 507.74,305.79 507.04,304.09 C506.33,302.39 505.41,301.00 504.98,301.00 C504.55,301.00 503.27,302.58 502.13,304.50 C501.00,306.43 498.47,308.76 496.52,309.69 C494.56,310.63 493.08,311.70 493.23,312.09 C493.38,312.47 496.20,314.85 499.50,317.36 ZM 829.38 447.23 C830.12,444.30 829.62,443.38 828.08,443.24 C823.09,442.78 823.06,442.76 824.17,440.69 C824.75,439.60 821.46,441.85 816.86,445.70 C813.28,448.69 810.07,451.25 806.97,453.53 C815.48,447.11 827.04,436.08 831.67,429.76 C833.63,427.09 835.46,425.13 835.74,425.41 C836.17,425.84 832.70,437.39 829.38,447.23 ZM 482.00 354.75 C482.00,355.61 483.31,354.84 485.25,352.84 L 488.50 349.50 L 485.50 346.50 C483.85,344.85 482.33,343.95 482.12,344.50 C481.92,345.05 480.90,346.44 479.86,347.58 C478.00,349.62 478.01,349.70 479.98,351.49 C481.09,352.49 482.00,353.96 482.00,354.75 ZM 671.00 464.65 C669.62,463.93 667.23,463.52 665.69,463.74 C664.14,463.96 662.28,463.65 661.55,463.04 C660.72,462.35 658.60,462.21 655.86,462.65 L 651.50 463.37 L 656.00 464.59 C658.47,465.26 663.42,465.84 667.00,465.89 C672.95,465.96 673.29,465.86 671.00,464.65 ZM 782.32 276.45 C782.54,275.29 771.98,271.66 771.12,272.60 C770.78,272.97 771.07,273.48 771.76,273.72 C772.45,273.97 772.79,274.53 772.52,274.97 C772.25,275.41 773.45,276.45 775.18,277.29 C778.28,278.79 781.97,278.36 782.32,276.45 ZM 722.44 346.72 C722.96,348.06 723.54,347.86 726.04,345.47 C729.25,342.39 728.77,340.61 724.88,341.17 C722.43,341.51 721.38,343.93 722.44,346.72 ZM 525.61 343.54 C528.26,347.56 532.24,346.19 530.01,342.02 C529.38,340.83 527.91,340.00 526.46,340.00 C523.56,340.00 523.49,340.29 525.61,343.54 ZM 669.22 217.58 C669.26,217.48 669.31,217.37 669.35,217.26 C669.40,217.16 669.45,217.05 669.50,216.95 C667.49,223.87 667.50,239.91 667.50,289.58 C667.50,291.98 667.50,294.45 667.50,297.00 C667.50,369.32 667.55,371.49 669.38,371.18 C669.96,371.08 670.83,370.86 671.71,370.59 C669.85,371.34 667.97,371.75 667.63,371.19 C667.40,370.81 667.28,336.98 667.36,296.00 C667.43,257.89 667.50,239.13 667.82,229.30 C668.10,223.68 668.52,220.10 669.22,217.58 ZM 784.52 426.96 C787.48,421.11 787.59,420.44 785.16,422.75 C784.15,423.71 783.50,424.84 783.72,425.25 C783.94,425.66 783.39,426.00 782.50,426.00 C781.61,426.00 781.16,426.45 781.50,427.00 C781.84,427.55 781.75,428.00 781.31,428.00 C780.86,428.00 780.50,429.08 780.50,430.40 C780.50,433.68 781.58,432.76 784.52,426.96 ZM 803.89 343.18 C804.98,331.61 805.42,320.02 805.41,306.68 C805.40,299.21 805.36,294.04 805.23,290.48 C805.31,292.30 805.37,294.54 805.50,297.33 C806.20,311.30 805.66,326.57 803.89,343.18 ZM 653.00 304.15 C653.51,305.09 653.64,306.79 653.80,310.29 L 654.09 317.00 L 653.00 317.00 ZM 692.00 382.00 C692.00,380.89 692.67,380.00 693.50,380.00 C694.33,380.00 695.00,380.89 695.00,382.00 C695.00,383.11 694.33,384.00 693.50,384.00 C692.67,384.00 692.00,383.11 692.00,382.00 ZM 587.00 504.00 C585.79,503.22 585.93,503.03 587.75,503.02 C588.99,503.01 590.00,503.45 590.00,504.00 C590.00,505.25 588.94,505.25 587.00,504.00 ZM 709.03 486.17 C692.29,486.92 670.65,486.41 659.00,484.64 C658.59,484.58 658.19,484.52 657.78,484.46 C669.09,485.91 679.90,486.40 693.00,486.41 C699.16,486.42 704.37,486.35 709.03,486.17 ZM 773.60 280.27 C772.59,279.25 771.75,280.78 772.58,282.13 C773.21,283.15 773.45,283.15 773.79,282.14 C774.02,281.44 773.94,280.60 773.60,280.27 ZM 574.90 571.89 L 574.90 571.89 C585.66,579.81 596.94,587.14 608.64,593.78 L 608.65 593.78 C609.38,594.20 610.12,594.62 610.86,595.03 C595.40,586.44 580.76,576.72 567.11,566.04 C569.67,568.02 572.27,569.97 574.90,571.89 ZM 734.37 461.91 C742.26,459.65 749.37,456.99 755.32,454.13 C749.06,457.21 742.02,459.82 734.37,461.91 ZM 803.39 456.07 C798.33,459.53 793.31,462.39 787.15,465.34 C793.07,462.41 798.56,459.29 803.39,456.07 ZM 537.91 540.23 C543.67,545.96 549.69,551.51 555.95,556.86 C556.74,557.55 557.51,558.22 558.26,558.86 C551.17,552.91 544.38,546.69 537.91,540.23 ZM 818.08 474.34 C814.72,480.71 811.64,484.54 806.59,489.62 C811.44,484.75 814.73,480.57 818.08,474.34 ZM 764.07 475.03 C757.33,477.45 750.68,479.42 743.36,481.14 C743.74,481.05 744.12,480.96 744.50,480.87 C751.02,479.27 757.62,477.30 764.07,475.03 ZM 824.22 461.03 C824.83,459.54 825.48,457.97 826.15,456.29 C826.26,456.00 826.37,455.72 826.48,455.45 C826.05,456.62 825.64,457.65 825.28,458.50 C824.92,459.37 824.56,460.22 824.22,461.03 ZM 680.87 207.00 C680.90,207.00 680.93,207.00 680.96,207.00 C679.74,207.10 678.37,207.52 676.95,208.35 C677.02,208.30 677.09,208.26 677.16,208.22 C678.47,207.49 679.73,207.10 680.87,207.00 ZM 719.50 485.46 C721.17,485.29 722.81,485.10 724.44,484.88 C722.96,485.09 721.30,485.29 719.50,485.46 Z" fill="rgb(66,197,210)"/>
<path d="M 0.00 418.00 L 0.00 0.00 L 627.50 0.00 L 1255.00 0.00 L 1255.00 418.00 L 1255.00 836.00 L 627.50 836.00 L 0.00 836.00 L 0.00 418.00 ZM 652.38 640.20 C658.36,637.05 663.31,634.11 663.38,633.65 C663.44,633.20 659.90,631.58 655.50,630.05 C651.10,628.53 645.07,626.23 642.10,624.95 C636.89,622.71 636.54,622.68 632.21,624.24 L 627.71 625.85 L 615.34 619.40 C598.38,610.54 585.18,602.89 574.50,595.71 C527.85,564.35 492.46,525.47 468.01,478.72 C445.50,435.69 433.65,389.38 429.96,330.00 C428.91,313.05 429.23,284.40 430.60,272.88 L 431.15 268.26 L 437.83 265.71 C467.23,254.51 486.15,248.87 512.00,243.59 C528.90,240.14 553.74,236.24 563.50,235.51 C567.90,235.17 573.12,234.67 575.11,234.39 L 578.71 233.87 L 579.35 224.69 C579.71,219.63 580.26,214.30 580.60,212.84 L 581.20 210.17 L 574.85 210.65 C520.27,214.72 463.57,228.15 414.50,248.63 L 407.50 251.56 L 406.62 257.53 C406.13,260.81 405.68,280.38 405.61,301.00 C405.47,347.51 407.29,366.57 415.53,404.72 C430.82,475.55 468.34,538.26 524.50,586.88 C551.04,609.85 585.69,632.31 615.89,646.10 L 628.28 651.76 L 634.89 648.84 C638.53,647.24 646.39,643.35 652.38,640.20 ZM 692.44 615.95 C716.20,600.48 734.30,585.85 752.92,567.04 C768.43,551.38 793.37,520.35 788.92,522.27 C788.14,522.60 783.37,524.69 778.32,526.90 C741.24,543.16 700.16,547.30 654.08,539.42 C646.21,538.08 644.07,537.43 645.08,536.70 C645.31,536.53 649.55,536.65 654.50,536.95 C682.14,538.64 725.17,533.59 743.00,526.57 C759.13,520.21 763.00,518.55 763.00,517.97 C763.00,517.60 764.91,516.51 767.25,515.55 C769.59,514.59 773.08,513.13 775.00,512.30 C782.58,509.06 798.86,497.37 806.59,489.62 C814.80,481.37 817.78,476.41 825.28,458.50 C828.65,450.45 836.37,426.04 835.74,425.41 C835.46,425.13 833.63,427.09 831.67,429.76 C826.46,436.87 812.48,449.94 803.94,455.70 C788.54,466.09 766.14,475.58 744.50,480.87 C725.94,485.41 716.37,486.44 693.00,486.41 C658.89,486.37 640.36,483.13 588.00,468.01 C547.85,456.42 502.18,449.02 481.72,450.79 C476.01,451.29 475.97,450.92 483.02,465.00 C511.59,522.02 561.89,570.90 624.00,601.97 C641.24,610.60 673.48,622.77 679.55,622.94 C680.68,622.97 686.48,619.83 692.44,615.95 ZM 705.50 466.93 C734.31,464.42 758.70,455.53 772.92,442.37 C782.28,433.70 788.38,423.56 791.35,411.73 C792.04,409.01 791.98,409.03 785.35,413.57 C775.57,420.26 767.07,424.25 753.00,428.76 C733.84,434.89 729.05,435.48 698.50,435.42 C663.40,435.36 646.49,432.91 589.50,419.64 C555.72,411.77 532.60,408.74 506.50,408.76 C490.40,408.77 470.72,410.64 465.46,412.65 C463.49,413.41 463.63,415.19 466.35,424.00 L 468.66 431.50 L 486.08 431.69 C520.78,432.07 546.20,436.47 595.16,450.55 C632.92,461.42 646.63,464.36 673.50,467.37 C680.17,468.11 694.17,467.92 705.50,466.93 ZM 817.86 429.61 C824.91,422.84 834.93,410.67 838.53,404.50 C843.18,396.54 848.24,362.43 850.12,326.39 C851.02,309.08 851.01,298.00 850.09,278.20 C849.43,264.07 848.57,252.18 848.19,251.80 C847.81,251.41 840.30,248.20 831.50,244.66 C793.40,229.35 754.58,219.19 709.65,212.77 L 700.79 211.50 L 698.93 206.58 C695.38,197.21 686.28,190.97 678.33,192.47 C669.79,194.07 661.68,200.96 657.39,210.25 L 654.50 216.50 L 654.00 245.00 L 653.50 273.50 L 628.75 273.77 L 604.00 274.03 L 604.00 258.13 L 604.00 242.23 L 623.93 241.50 L 643.86 240.77 L 644.18 232.38 L 644.50 224.00 L 629.27 224.00 L 614.04 224.00 L 613.41 226.50 C612.86,228.69 612.24,229.00 608.39,229.00 L 604.00 229.00 L 604.00 225.11 C604.00,222.80 605.13,219.06 606.80,215.87 C610.17,209.41 615.33,206.04 621.87,206.02 C625.59,206.00 626.70,206.52 629.44,209.50 C632.41,212.75 633.07,213.00 638.59,213.00 L 644.53 213.00 L 646.27 208.12 C648.43,202.03 648.42,202.00 646.03,202.00 C644.95,202.00 641.81,200.00 639.06,197.55 C633.56,192.66 629.11,191.01 621.43,191.01 C609.80,190.99 598.79,198.54 593.41,210.21 L 590.50 216.50 L 590.22 293.25 L 589.94 370.00 L 587.16 370.00 C585.63,370.00 583.51,369.36 582.44,368.58 C580.57,367.21 580.49,365.22 580.15,311.08 L 579.79 255.00 L 577.15 255.00 C572.42,255.00 547.80,258.05 536.00,260.09 C511.03,264.42 481.06,272.20 460.83,279.62 L 451.16 283.17 L 450.43 290.83 C449.60,299.72 450.46,331.51 451.98,347.50 C452.97,357.94 458.76,395.09 459.51,395.85 C459.71,396.04 465.19,395.37 471.69,394.35 C485.86,392.13 527.06,391.84 544.00,393.84 C563.83,396.19 592.90,401.64 619.50,408.01 C655.55,416.64 671.01,418.96 697.50,419.69 C720.91,420.33 735.79,418.92 752.81,414.46 C775.07,408.62 794.83,397.44 796.42,389.79 C803.78,354.23 806.80,323.50 805.50,297.33 C804.70,281.08 806.64,283.64 791.00,278.17 C767.43,269.91 743.50,263.64 722.00,260.07 C707.29,257.63 677.83,254.15 676.75,254.72 C676.34,254.94 676.00,280.75 676.00,312.08 L 676.00 369.05 L 673.63 369.95 C672.32,370.45 670.41,371.00 669.38,371.18 C667.55,371.49 667.50,369.32 667.50,297.00 C667.50,213.65 667.27,216.48 674.60,210.05 C682.21,203.36 689.87,208.61 683.52,216.15 C679.93,220.43 676.69,232.09 678.75,233.33 C679.16,233.58 684.45,234.30 690.50,234.94 C735.57,239.65 776.80,249.34 814.68,264.12 L 824.87 268.10 L 825.40 273.30 C827.62,295.10 826.67,328.60 822.98,358.20 C819.13,389.13 811.54,417.06 801.64,436.73 C799.64,440.70 798.00,444.23 798.00,444.56 C798.00,445.83 811.75,435.48 817.86,429.61 ZM 721.25 385.35 C718.49,381.47 718.46,381.00 721.03,381.00 C723.34,381.00 724.31,382.79 723.83,386.18 C723.51,388.43 723.43,388.41 721.25,385.35 ZM 649.00 361.01 C648.13,360.45 638.29,360.02 625.75,360.02 L 604.00 360.00 L 604.00 353.00 L 604.00 346.00 L 629.04 346.00 L 654.08 346.00 L 653.79 353.74 C653.49,361.77 652.48,363.30 649.00,361.01 ZM 770.50 358.65 L 767.50 355.62 L 770.46 352.68 C772.30,350.85 773.57,350.20 773.82,350.95 C774.04,351.62 775.60,353.00 777.28,354.03 L 780.34 355.89 L 777.77 357.06 C776.36,357.70 774.82,359.01 774.35,359.96 C773.59,361.51 773.18,361.37 770.50,358.65 ZM 482.00 354.75 C482.00,353.96 481.09,352.49 479.98,351.49 C478.01,349.70 478.00,349.62 479.86,347.58 C480.90,346.44 481.92,345.05 482.12,344.50 C482.33,343.95 483.85,344.85 485.50,346.50 L 488.50 349.50 L 485.25 352.84 C483.31,354.84 482.00,355.61 482.00,354.75 ZM 722.44 346.72 C721.38,343.93 722.43,341.51 724.88,341.17 C728.77,340.61 729.25,342.39 726.04,345.47 C723.54,347.86 722.96,348.06 722.44,346.72 ZM 525.61 343.54 C523.49,340.29 523.56,340.00 526.46,340.00 C527.91,340.00 529.38,340.83 530.01,342.02 C532.24,346.19 528.26,347.56 525.61,343.54 ZM 773.01 334.51 C771.37,332.54 772.44,330.00 774.91,330.00 C777.38,330.00 778.31,331.44 777.50,334.01 C776.75,336.37 774.74,336.59 773.01,334.51 ZM 748.17 321.61 C746.61,318.68 744.62,316.73 741.78,315.35 L 737.64 313.35 L 741.96 310.92 C744.78,309.34 747.02,307.07 748.39,304.39 L 750.50 300.27 L 753.00 304.89 C755.07,308.70 756.28,309.75 759.97,310.91 C763.87,312.15 764.20,312.46 762.60,313.41 C756.59,316.97 754.31,318.95 752.48,322.22 L 750.43 325.87 L 748.17 321.61 ZM 499.50 317.36 C496.20,314.85 493.38,312.47 493.23,312.09 C493.08,311.70 494.56,310.63 496.52,309.69 C498.47,308.76 501.00,306.43 502.13,304.50 C503.27,302.58 504.55,301.00 504.98,301.00 C505.41,301.00 506.33,302.39 507.04,304.09 C507.74,305.79 510.04,308.32 512.14,309.71 L 515.97 312.24 L 512.07 315.07 C509.92,316.62 507.88,318.81 507.52,319.94 C507.16,321.08 506.56,321.98 506.18,321.97 C505.81,321.95 502.80,319.88 499.50,317.36 ZM 604.00 310.50 L 604.00 304.00 L 628.50 304.00 L 653.00 304.00 L 653.00 310.50 L 653.00 317.00 L 628.50 317.00 L 604.00 317.00 L 604.00 310.50 Z" fill="rgb(253,253,253)"/>
</g>
</svg>